# xmcd
#
# Track frame offsets: 
#        150
#        18965
#        37517
#        60075
#        76597
#        100050
#        128591
#        147301
#        167709
#        183167
#
# Disc length: 2718 seconds
#
# Revision: 0
# Processed by: cddbd v1.5.2PL0 Copyright (c) Steve Scherf et al.
# Submitted via: ExactAudioCopy v1.3
#
DISCID=620a9c0a
DTITLE=John Verity - Its A Mean Old Scene
DYEAR=2012
DGENRE=Blues Rock
TTITLE0=Hoochie Coochie Man
TTITLE1=Dust My Broom
TTITLE2=The Thrill Is Gone
TTITLE3=Crossroads
TTITLE4=You Shook Me
TTITLE5=I'd Rather Go Blind
TTITLE6=Reconsider Baby
TTITLE7=Come In My Kitchen
TTITLE8=Rollin' And Tumblin'
TTITLE9=Leo Had It Right
EXTD=
EXTT0=
EXTT1=
EXTT2=
EXTT3=
EXTT4=
EXTT5=
EXTT6=
EXTT7=
EXTT8=
EXTT9=
PLAYORDER=
